<?xml version="1.0" standalone="no"?>
<!DOCTYPE svg PUBLIC "-//W3C//DTD SVG 20010904//EN"
 "http://www.w3.org/TR/2001/REC-SVG-20010904/DTD/svg10.dtd">
<svg version="1.0" xmlns="http://www.w3.org/2000/svg"
 width="1000.000000pt" height="1000.000000pt" viewBox="0 0 1000.000000 1000.000000"
 preserveAspectRatio="xMidYMid meet">
<metadata>
Created by potrace 1.14, written by Peter Selinger 2001-2017
</metadata>
<g transform="translate(0.000000,1000.000000) scale(0.100000,-0.100000)"
fill="#000000" stroke="none">
<path d="M9530 8522 c-29 -5 -152 -59 -160 -70 -3 -5 -21 -19 -40 -32 -19 -14
-39 -28 -45 -32 -18 -14 -147 -109 -265 -194 -63 -46 -124 -90 -136 -99 -268
-198 -276 -203 -323 -202 -25 0 -60 -7 -78 -16 -27 -14 -32 -15 -37 -2 -8 21
-30 10 -119 -59 -85 -65 -92 -67 -587 -197 -367 -97 -1080 -302 -1173 -338
-32 -12 -125 -74 -209 -138 -45 -34 -55 -47 -51 -64 7 -24 -10 -25 208 10 72
11 155 23 185 26 30 3 66 7 80 10 28 5 99 13 180 20 30 3 71 7 90 10 19 2 64
7 100 10 36 3 85 8 110 10 25 3 72 7 105 10 304 26 331 27 320 17 -16 -16
-128 -102 -134 -103 -3 -1 -101 -2 -216 -2 l-211 -2 -104 -79 c-58 -44 -197
-149 -309 -234 l-204 -155 -66 69 c-36 38 -120 127 -186 199 -66 71 -129 139
-140 151 -11 11 -69 74 -130 139 -60 66 -141 152 -178 191 -38 40 -76 81 -85
92 -9 10 -61 67 -116 125 -82 89 -101 105 -116 97 -10 -5 -17 -15 -16 -22 1
-7 125 -197 276 -423 761 -1140 744 -1115 761 -1115 4 0 103 74 219 165 182
142 214 163 226 151 8 -8 14 -18 14 -23 -1 -4 -77 -66 -171 -138 -93 -71 -181
-140 -196 -152 -14 -13 -30 -23 -35 -23 -5 0 -13 -11 -18 -24 -8 -21 4 -43 87
-168 53 -79 101 -146 107 -150 6 -4 22 0 36 9 20 13 245 186 320 246 8 7 137
106 285 222 149 115 277 215 285 222 88 72 681 528 726 558 32 22 61 42 64 45
3 3 72 54 154 113 89 65 159 108 175 108 80 5 245 -21 388 -61 51 -15 88 -1
141 51 38 37 39 55 13 156 -18 70 -18 71 1 91 28 28 34 93 13 148 -9 25 -16
46 -14 48 2 1 22 16 44 32 22 16 44 33 50 37 5 5 73 56 150 113 309 233 345
265 390 354 37 72 19 176 -37 212 -20 13 -75 34 -118 46 -22 6 -250 9 -280 4z
m-1281 -1298 c-24 -20 -70 -57 -102 -81 l-58 -45 -127 -2 -128 -1 -58 -48
c-50 -40 -60 -45 -72 -33 -25 26 -27 25 142 152 87 66 91 67 264 80 47 4 86 7
87 8 2 1 24 3 49 5 l47 2 -44 -37z"/>
<path d="M5592 8457 c-15 -19 -93 -178 -97 -198 -5 -25 9 -32 61 -31 42 1 72
-17 43 -27 -26 -8 -85 -78 -96 -115 -7 -21 -11 -95 -10 -174 l2 -137 323 -3
c301 -2 322 -1 323 15 1 10 3 47 4 83 4 107 5 110 13 110 4 0 16 -16 27 -35
25 -47 106 -120 163 -148 68 -32 216 -31 284 2 69 33 131 92 164 156 l29 55 5
-118 5 -117 645 0 645 0 3 103 c3 113 -3 132 -47 132 -14 0 -33 5 -41 10 -12
8 -9 16 22 47 54 56 69 102 63 186 -4 56 -11 77 -32 106 -64 85 -116 103 -317
108 -88 2 -170 2 -181 -1 -15 -4 -34 -30 -61 -86 -21 -44 -43 -80 -47 -80 -4
0 -14 15 -22 34 -18 42 -82 98 -132 115 -42 14 -338 27 -378 17 -19 -5 -36
-30 -79 -117 l-55 -110 -20 39 c-26 52 -99 126 -149 151 -55 28 -85 34 -173
34 -61 0 -88 -6 -133 -26 -64 -29 -151 -113 -173 -165 -15 -36 -25 -36 -30 1
-12 78 -64 140 -143 172 -57 23 -391 33 -408 12z m948 -242 c67 -35 77 -131
18 -180 -50 -42 -129 -30 -161 25 -32 54 -17 118 35 150 39 24 69 25 108 5z
m425 5 c3 -6 -6 -15 -21 -20 -36 -14 -82 -62 -90 -95 -10 -39 -21 -30 -18 16
1 23 -2 54 -6 69 -5 16 -6 31 -2 34 10 10 131 6 137 -4z m629 -5 c3 -9 0 -15
-8 -15 -18 0 -72 -53 -90 -88 -8 -16 -16 -46 -18 -66 l-2 -36 -63 0 c-35 0
-63 4 -63 8 0 5 15 16 34 25 54 25 95 89 102 157 1 14 2 26 3 28 1 1 23 2 50
2 34 0 51 -4 55 -15z m-1454 -123 c0 -15 4 -42 9 -59 9 -31 -1 -54 -14 -33 -3
5 -31 10 -61 10 -30 0 -54 4 -54 9 0 5 16 19 35 31 19 12 42 34 52 50 19 34
33 30 33 -8z"/>
<path d="M3072 8123 c-11 -18 -16 -10 239 -408 87 -137 172 -270 188 -295 15
-25 57 -90 92 -144 67 -105 419 -657 609 -956 61 -96 212 -332 335 -525 124
-192 236 -370 251 -394 l27 -45 -29 -23 c-34 -28 -174 -135 -894 -681 -113
-86 -252 -192 -310 -236 -122 -93 -605 -459 -830 -630 -85 -64 -162 -123 -170
-129 -13 -10 -1101 -836 -1455 -1105 -60 -45 -117 -88 -125 -95 -8 -7 -60 -46
-115 -87 -55 -41 -107 -81 -115 -87 -8 -7 -107 -83 -220 -168 -542 -410 -541
-409 -538 -430 3 -20 11 -20 563 -21 309 0 566 -3 572 -7 7 -4 9 -15 6 -25 -3
-9 -3 -14 2 -10 4 4 16 3 26 -2 23 -13 36 5 13 18 -37 21 24 28 223 27 l203
-2 187 149 c104 82 198 158 211 169 12 10 24 19 26 19 2 0 3 -26 2 -57 -3 -68
14 -151 38 -188 36 -54 131 -69 205 -31 40 21 44 20 26 -8 -8 -13 -13 -31 -9
-40 6 -15 47 -16 473 -14 l466 3 0 33 c0 31 16 52 42 52 6 0 11 -9 10 -20 -1
-11 -5 -20 -9 -20 -3 0 -6 -9 -5 -20 2 -26 17 -30 157 -33 l115 -2 -3 -26 c-2
-23 1 -25 28 -21 30 4 41 26 18 35 -7 2 -11 7 -8 9 3 3 219 8 480 12 599 7
740 14 799 38 29 12 15 12 806 4 1292 -13 1515 -16 1870 -22 836 -13 930 -11
1120 31 145 33 138 31 219 61 134 50 244 120 286 181 49 71 5 228 -60 218 -27
-4 -176 -19 -305 -30 -63 -5 -144 -13 -210 -20 -42 -4 -119 -12 -210 -20 -30
-3 -79 -7 -107 -10 -29 -3 -73 -7 -98 -10 -93 -8 -176 -16 -220 -21 -175 -18
-196 -19 -313 -16 -48 1 -67 6 -65 14 3 7 15 13 29 14 35 2 215 24 329 39 14
2 54 6 90 10 36 4 72 8 80 10 8 2 47 7 85 11 39 3 77 8 85 9 14 3 79 11 165
21 22 2 51 7 65 9 14 2 48 7 75 10 28 3 66 7 85 10 19 2 58 7 85 11 28 3 61 7
75 9 34 5 172 18 187 18 7 0 15 9 19 19 12 38 -8 44 -145 42 -72 -2 -133 2
-136 7 -4 5 6 9 22 10 139 2 165 5 173 20 5 8 6 20 2 26 -20 32 -319 190 -502
266 -216 89 -514 173 -556 157 -35 -14 -51 -13 -37 1 6 6 8 19 6 30 -4 15 -15
19 -52 20 -101 3 -326 -7 -374 -17 -12 -2 -42 -6 -67 -9 -24 -3 -74 -13 -110
-21 -36 -9 -72 -17 -80 -19 -42 -9 -246 -78 -254 -86 -6 -5 -16 -9 -23 -9 -12
0 -194 -65 -363 -130 -41 -16 -167 -63 -280 -105 -267 -99 -440 -164 -465
-175 -11 -5 -69 -28 -130 -51 -60 -22 -159 -60 -220 -84 -60 -23 -173 -66
-250 -96 -154 -58 -168 -66 -161 -85 3 -8 -3 -18 -14 -24 -17 -9 -21 -32 -8
-45 3 -3 18 -7 34 -9 43 -5 38 -32 -10 -50 -23 -9 -47 -16 -53 -16 -7 0 -17
-9 -23 -21 -16 -29 -25 -16 -26 37 0 24 -4 47 -8 51 -4 5 -209 8 -455 8 -245
1 -451 4 -456 7 -6 3 -8 34 -7 67 l4 62 71 -6 c40 -3 100 -8 134 -10 44 -3 75
-13 110 -33 26 -16 62 -32 78 -37 17 -4 37 -10 45 -12 70 -19 169 -1 247 45
45 27 59 30 139 30 49 0 96 1 105 1 12 1 19 14 24 47 3 25 9 56 11 67 12 51
13 92 2 104 -7 9 -7 13 1 13 14 0 14 290 0 425 -4 44 -10 105 -13 135 -7 74
-53 252 -67 261 -8 5 -8 12 -1 25 8 14 3 33 -24 85 -40 78 -59 93 -134 108
-100 20 -107 20 -315 37 -104 8 -503 9 -535 1 -70 -16 -220 -58 -257 -71 -24
-8 -43 -12 -42 -8 0 4 52 48 116 97 64 50 231 182 372 294 141 112 271 215
290 230 18 14 41 33 51 41 10 8 33 27 51 42 79 62 417 329 444 351 61 50 644
513 681 542 21 17 66 53 99 80 34 28 75 60 91 72 37 28 296 234 348 276 21 18
45 36 52 40 28 16 40 -7 -191 347 -67 102 -143 219 -171 260 -27 41 -51 80
-54 85 -3 6 -45 71 -94 145 -144 219 -404 616 -821 1255 -373 571 -426 653
-461 702 l-36 51 -639 1 c-585 1 -639 0 -647 -16z m1688 -5167 c21 -2 27 -11
42 -60 10 -31 20 -79 24 -104 3 -26 8 -50 10 -53 1 -3 6 -27 9 -53 5 -34 4
-46 -4 -42 -6 4 -11 13 -11 21 0 28 -73 186 -99 213 -14 16 -48 37 -76 47 -61
22 -59 21 -50 35 4 7 28 8 68 4 34 -3 73 -7 87 -8z m2670 -920 c0 -17 -42 -16
-48 2 -2 7 6 12 22 12 15 0 26 -6 26 -14z m-253 -33 c-3 -3 -11 -2 -17 2 -9 6
-9 10 1 16 14 8 27 -7 16 -18z"/>
<path d="M6821 5597 c-21 -18 -54 -44 -72 -59 -64 -51 -285 -225 -464 -367
-99 -79 -196 -156 -215 -171 -19 -16 -75 -60 -125 -99 -49 -39 -97 -77 -105
-84 -8 -6 -47 -37 -85 -67 -39 -30 -75 -59 -81 -65 -6 -5 -80 -64 -164 -130
-84 -66 -169 -134 -188 -151 l-35 -31 95 -164 c52 -90 161 -276 241 -414 141
-242 145 -251 128 -270 -49 -56 7 -71 77 -21 27 20 54 36 61 36 6 0 11 4 11 8
0 11 208 119 276 143 63 22 67 23 129 38 70 18 221 6 313 -23 45 -15 82 -30
82 -34 0 -4 -80 -33 -178 -66 -127 -42 -189 -68 -221 -92 -42 -33 -66 -41
-391 -144 -30 -9 -91 -27 -135 -40 -192 -54 -190 -53 -190 -79 0 -28 20 -34
68 -20 18 5 46 12 62 15 17 3 46 9 65 14 19 5 49 11 65 13 17 3 86 17 155 32
69 15 136 29 150 31 14 3 40 9 57 15 18 6 45 12 60 14 16 2 145 31 288 65 312
73 325 76 325 62 0 -6 10 -12 22 -14 30 -4 36 -28 6 -27 -13 1 -153 -31 -313
-71 -159 -39 -299 -74 -310 -76 -24 -5 -41 -9 -120 -29 -33 -9 -78 -20 -100
-25 -78 -18 -170 -41 -190 -46 -11 -3 -31 -7 -45 -10 -14 -3 -68 -16 -120 -29
-52 -13 -140 -33 -195 -45 -143 -31 -137 -28 -133 -58 3 -28 11 -30 73 -19 67
12 212 38 240 43 87 14 155 26 200 34 64 13 311 58 348 64 15 3 35 7 45 10 9
3 33 7 52 10 19 3 80 15 135 26 55 12 111 24 125 26 14 3 34 7 45 9 570 108
1742 412 2213 574 45 15 82 24 82 20 0 -4 -18 -29 -40 -54 -216 -250 -528
-445 -901 -565 -51 -17 -103 -33 -114 -35 -11 -3 -81 -20 -156 -39 -75 -19
-149 -37 -165 -40 -16 -2 -74 -14 -129 -25 -55 -11 -113 -22 -130 -25 -16 -3
-40 -8 -51 -10 -12 -2 -39 -7 -60 -10 -22 -4 -61 -10 -89 -16 -27 -5 -71 -12
-97 -15 -26 -3 -53 -7 -60 -10 -7 -2 -35 -6 -63 -9 -27 -3 -59 -7 -71 -10 -12
-2 -45 -7 -75 -11 -30 -3 -65 -8 -79 -10 -26 -4 -117 -16 -160 -20 -14 -1 -50
-5 -80 -9 -125 -16 -138 -17 -300 -31 -30 -3 -75 -7 -100 -10 -25 -2 -81 -8
-125 -11 -44 -4 -93 -8 -110 -10 -44 -4 -217 -15 -445 -29 -266 -15 -260 -14
-256 -38 6 -38 -1 -38 529 -32 282 2 544 7 582 9 145 8 272 17 315 21 25 3 81
7 125 10 44 3 96 8 115 11 20 2 60 6 90 9 53 4 127 13 180 20 14 2 50 7 80 10
70 8 240 34 360 55 30 6 67 12 83 15 15 3 39 7 54 10 22 4 111 22 148 30 24 5
74 17 125 30 30 8 66 16 80 19 43 8 171 45 285 83 276 90 494 232 750 488 227
227 448 532 469 648 3 20 -1 31 -17 42 -18 13 -49 15 -187 11 -91 -3 -176 -7
-190 -10 -22 -4 -129 -15 -210 -21 -37 -3 -251 -26 -280 -30 -70 -10 -110 -15
-155 -20 -27 -3 -66 -7 -85 -10 -19 -3 -55 -7 -80 -10 -68 -7 -132 -15 -161
-20 -15 -3 -47 -7 -70 -10 -89 -10 -145 -17 -169 -20 -14 -2 -45 -6 -70 -10
-25 -3 -56 -8 -70 -10 -42 -7 -134 -18 -150 -18 -8 0 -58 12 -110 25 -52 14
-120 30 -150 36 -67 12 -330 14 -385 3 -110 -23 -98 -27 -146 47 -24 37 -93
144 -155 237 -61 94 -149 229 -197 302 l-86 132 80 98 c44 54 95 116 114 138
18 22 66 80 105 129 40 48 80 98 90 110 121 143 178 219 174 231 -10 26 -34
24 -73 -8z m484 -1523 c17 -3 39 -7 50 -9 114 -16 150 -27 130 -43 -80 -60
-206 -129 -365 -200 l-45 -20 -37 30 c-20 16 -73 46 -118 66 l-81 38 103 51
c95 48 171 83 208 96 16 5 103 0 155 -9z"/>
<path d="M745 5221 c-9 -16 9 -20 23 -5 10 12 10 14 -2 14 -8 0 -17 -4 -21 -9z"/>
<path d="M327 5103 c2 -130 3 -137 11 -129 13 13 12 206 -1 206 -8 0 -12 -24
-10 -77z"/>
<path d="M3705 4979 c34 -10 213 -10 220 0 2 4 -53 7 -123 8 -88 0 -118 -2
-97 -8z"/>
<path d="M1740 4720 c0 -5 5 -10 10 -10 6 0 10 5 10 10 0 6 -4 10 -10 10 -5 0
-10 -4 -10 -10z"/>
<path d="M3371 4379 l-23 -30 28 5 c30 6 45 22 37 43 -7 19 -15 16 -42 -18z"/>
<path d="M2262 4384 c10 -10 20 -15 24 -12 3 4 -5 12 -18 18 -22 12 -22 12 -6
-6z"/>
<path d="M4420 1640 c-12 -8 -9 -10 13 -10 16 0 26 4 22 10 -8 12 -16 12 -35
0z"/>
<path d="M6124 1635 c-23 -16 -19 -20 24 -30 32 -7 33 -6 23 13 -16 30 -26 33
-47 17z"/>
<path d="M8178 1642 c-10 -2 -18 -7 -18 -12 0 -11 43 -21 53 -11 11 11 -14 28
-35 23z"/>
<path d="M8620 1639 c0 -5 5 -7 10 -4 6 3 10 8 10 11 0 2 -4 4 -10 4 -5 0 -10
-5 -10 -11z"/>
<path d="M3195 1620 c28 -12 37 -12 30 0 -3 6 -16 10 -28 9 -21 0 -21 -1 -2
-9z"/>
<path d="M660 1500 c0 -5 5 -10 11 -10 5 0 7 5 4 10 -3 6 -8 10 -11 10 -2 0
-4 -4 -4 -10z"/>
<path d="M4005 1497 c-16 -9 -21 -37 -6 -37 5 0 14 7 21 15 7 8 19 15 26 15 8
0 14 4 14 8 0 10 -36 10 -55 -1z"/>
<path d="M4803 1498 c-2 -5 4 -8 14 -8 10 -1 29 -7 42 -14 20 -11 28 -11 52 3
16 9 29 18 29 21 0 8 -131 6 -137 -2z"/>
<path d="M2320 1030 c0 -4 11 -12 25 -18 20 -9 25 -9 25 2 0 8 -11 16 -25 18
-14 3 -25 2 -25 -2z"/>
<path d="M2195 1020 c-11 -5 -42 -9 -68 -9 -27 -1 -46 -4 -43 -9 5 -8 120 -7
143 2 8 3 11 10 8 16 -7 12 -13 12 -40 0z"/>
<path d="M4570 1010 c-13 -8 -12 -10 3 -10 9 0 17 5 17 10 0 12 -1 12 -20 0z"/>
<path d="M181 1005 c2 -6 15 -36 28 -68 24 -54 26 -57 60 -57 l36 0 -25 20
c-14 11 -28 20 -32 20 -3 0 -21 21 -38 48 -18 26 -31 42 -29 37z"/>
</g>
</svg>
